<svg width="32" height="38" viewBox="0 0 32 38" fill="none" xmlns="http://www.w3.org/2000/svg">
<path d="M21.1865 0.333252H2.43985C1.77968 0.350728 1.15308 0.628018 0.696198 1.10487C0.239319 1.58172 -0.0109241 2.21961 -0.000154533 2.87992V35.1199C-0.0109241 35.7802 0.239319 36.4181 0.696198 36.895C1.15308 37.3718 1.77968 37.6491 2.43985 37.6666H29.5599C30.22 37.6491 30.8466 37.3718 31.3035 36.895C31.7604 36.4181 32.0106 35.7802 31.9999 35.1199V10.8933L21.1865 0.333252ZM20.7865 3.65325L28.7865 11.5199H20.7865V3.65325ZM2.66651 34.9999V2.99992H18.6665V13.6666H29.3332V34.9999H2.66651Z" fill="#3D80EA"/>
</svg>
