<svg width="336" height="71" viewBox="0 0 336 71" fill="none" xmlns="http://www.w3.org/2000/svg">
<path d="M169.046 25.4105V0L155.568 25.4105H169.046Z" fill="#F7F8FD"/>
<path d="M152.904 30.4404L147.525 40.5673H161.392V40.5822H177.528L182.914 30.4404H169.047H152.904Z" fill="#F7F8FD"/>
<path d="M161.392 45.6045V71L174.862 45.6045H161.392Z" fill="#F7F8FD"/>
<path d="M11.7498 35.7431C12.565 36.1113 13.2573 36.7369 13.7356 37.5375C14.2138 38.338 14.4555 39.2758 14.4288 40.2273C14.4405 41.0253 14.2738 41.8146 13.9429 42.5287C13.6119 43.2428 13.1264 43.8607 12.5272 44.3303C11.001 45.4802 9.16099 46.0459 7.30114 45.9372C3.73848 45.9372 1.30477 44.425 0 41.4007L3.70609 39.0464C4.26825 40.7729 5.4828 41.6323 7.33584 41.6323C8.02551 41.6758 8.71098 41.4906 9.29994 41.1017C9.51943 40.9423 9.69808 40.7259 9.81938 40.4725C9.94069 40.2191 10.0007 39.9368 9.99396 39.6518C9.99396 38.4934 9.29994 37.9104 7.91189 37.9104H5.42727V33.7252H7.30114C8.68919 33.7252 9.38321 33.1422 9.38321 31.9763C9.38923 31.7194 9.33822 31.4647 9.2344 31.2333C9.13059 31.002 8.97698 30.8006 8.78635 30.646C8.32206 30.2963 7.76296 30.1228 7.19704 30.1528C6.48599 30.1347 5.78745 30.3561 5.19893 30.7862C4.61041 31.2163 4.1613 31.8336 3.9143 32.5518L0.20821 30.2424C1.54536 27.3277 3.84027 25.8703 7.09294 25.8703C8.82986 25.7613 10.5415 26.3588 11.8886 27.5444C12.4481 28.0197 12.9009 28.6246 13.2133 29.3143C13.5257 30.0039 13.6897 30.7606 13.6931 31.5279C13.7396 32.3521 13.5846 33.1751 13.2437 33.9147C12.9027 34.6543 12.3876 35.2847 11.7498 35.7431Z" fill="#F7F8FD"/>
<path d="M32.3205 43.0748C31.0185 44.5043 29.3489 45.4815 27.5268 45.8804C25.7046 46.2794 23.8133 46.0819 22.0963 45.3133C20.3792 44.5448 18.9152 43.2404 17.8925 41.5681C16.8698 39.8958 16.3354 37.9321 16.358 35.9299C16.324 34.5873 16.5402 33.2509 16.9938 31.9998C17.4474 30.7487 18.1293 29.6081 18.9992 28.6455C19.869 27.6829 20.9092 26.9178 22.0582 26.3954C23.2072 25.8729 24.4418 25.6038 25.6891 25.6038C26.9363 25.6038 28.171 25.8729 29.32 26.3954C30.469 26.9178 31.5092 27.6829 32.379 28.6455C33.2489 29.6081 33.9307 30.7487 34.3844 31.9998C34.838 33.2509 35.0542 34.5873 35.0202 35.9299C35.047 37.2562 34.8213 38.5744 34.357 39.8032C33.8927 41.032 33.1996 42.1454 32.3205 43.0748ZM22.2641 39.6892C23.1826 40.6436 24.4092 41.177 25.6856 41.177C26.962 41.177 28.1886 40.6436 29.1071 39.6892C29.5636 39.2017 29.9223 38.6185 30.161 37.9758C30.3998 37.333 30.5135 36.6443 30.4952 35.9523C30.5127 35.2605 30.3986 34.572 30.1599 33.9294C29.9212 33.2868 29.5629 32.7035 29.1071 32.2155C28.1862 31.2663 26.9605 30.7364 25.6856 30.7364C24.4108 30.7364 23.1851 31.2663 22.2641 32.2155C21.8238 32.7131 21.4789 33.2992 21.2491 33.9404C21.0193 34.5816 20.909 35.2653 20.9246 35.9523C20.909 36.6394 21.0193 37.3231 21.2491 37.9643C21.4789 38.6055 21.8238 39.1916 22.2641 39.6892Z" fill="#F7F8FD"/>
<path d="M38.9555 26.4309H52.9263V45.429H48.3734V31.1468H43.5153V37.492C43.5153 43.3463 41.033 45.992 36.0684 45.429V40.8327C36.4359 40.9805 36.8356 41.009 37.218 40.9147C37.6004 40.8204 37.9487 40.6074 38.2198 40.3021C38.7922 39.3998 39.0547 38.311 38.9624 37.2229L38.9555 26.4309Z" fill="#F7F8FD"/>
<path d="M72.0883 43.0747C70.7863 44.5042 69.1167 45.4814 67.2946 45.8804C65.4724 46.2793 63.5811 46.0818 61.864 45.3133C60.147 44.5447 58.6829 43.2403 57.6603 41.568C56.6376 39.8957 56.1031 37.9321 56.1257 35.9299C56.1257 33.2639 57.1092 30.7071 58.8598 28.822C60.6104 26.9369 62.9847 25.8778 65.4603 25.8778C67.936 25.8778 70.3103 26.9369 72.0609 28.822C73.8115 30.7071 74.7949 33.2639 74.7949 35.9299C74.8208 37.2567 74.5941 38.5752 74.1285 39.8041C73.663 41.0329 72.9686 42.146 72.0883 43.0747ZM62.0319 39.6891C62.9504 40.6435 64.177 41.1769 65.4534 41.1769C66.7298 41.1769 67.9564 40.6435 68.8749 39.6891C69.3314 39.2016 69.6901 38.6185 69.9288 37.9757C70.1676 37.333 70.2813 36.6443 70.263 35.9523C70.2805 35.2604 70.1664 34.572 69.9277 33.9294C69.689 33.2867 69.3307 32.7035 68.8749 32.2155C67.9539 31.2662 66.7283 30.7364 65.4534 30.7364C64.1785 30.7364 62.9529 31.2662 62.0319 32.2155C61.5916 32.7131 61.2467 33.2992 61.0169 33.9404C60.787 34.5816 60.6768 35.2652 60.6924 35.9523C60.6768 36.6394 60.787 37.323 61.0169 37.9642C61.2467 38.6054 61.5916 39.1915 62.0319 39.6891Z" fill="#F7F8FD"/>
<path d="M75.5791 26.4309H91.2154V31.1468H85.7118V45.429H81.159V31.1468H75.6069L75.5791 26.4309Z" fill="#F7F8FD"/>
<path d="M107.977 43.0748C106.675 44.5043 105.005 45.4815 103.183 45.8804C101.361 46.2794 99.4696 46.0819 97.7525 45.3133C96.0355 44.5448 94.5714 43.2404 93.5487 41.5681C92.5261 39.8958 91.9916 37.9321 92.0142 35.9299C91.9802 34.5873 92.1964 33.2509 92.6501 31.9998C93.1037 30.7487 93.7856 29.6081 94.6554 28.6455C95.5253 27.6829 96.5654 26.9178 97.7145 26.3954C98.8635 25.8729 100.098 25.6038 101.345 25.6038C102.593 25.6038 103.827 25.8729 104.976 26.3954C106.125 26.9178 107.165 27.6829 108.035 28.6455C108.905 29.6081 109.587 30.7487 110.041 31.9998C110.494 33.2509 110.711 34.5873 110.677 35.9299C110.703 37.2562 110.478 38.5744 110.013 39.8032C109.549 41.032 108.856 42.1454 107.977 43.0748ZM97.9204 39.6892C98.8389 40.6436 100.065 41.177 101.342 41.177C102.618 41.177 103.845 40.6436 104.763 39.6892C105.219 39.2006 105.576 38.6173 105.815 37.9748C106.054 37.3323 106.168 36.6441 106.151 35.9523C106.167 35.2607 106.053 34.5728 105.814 33.9304C105.575 33.288 105.218 32.7046 104.763 32.2155C103.842 31.2663 102.617 30.7364 101.342 30.7364C100.067 30.7364 98.8414 31.2663 97.9204 32.2155C97.4801 32.7131 97.1352 33.2992 96.9054 33.9404C96.6755 34.5816 96.5653 35.2653 96.5809 35.9523C96.5653 36.6394 96.6755 37.3231 96.9054 37.9643C97.1352 38.6055 97.4801 39.1916 97.9204 39.6892Z" fill="#F7F8FD"/>
<path d="M131.046 37.9478H117.748C118.338 40.3244 119.997 41.5202 122.725 41.5202C123.478 41.5716 124.232 41.425 124.921 41.093C125.61 40.761 126.214 40.2536 126.681 39.6144L130.352 41.8939C128.603 44.5894 126.037 45.9371 122.655 45.9371C121.366 46.0009 120.079 45.7814 118.871 45.2918C117.664 44.8023 116.562 44.053 115.632 43.0897C114.763 42.1522 114.082 41.0336 113.63 39.8024C113.177 38.5711 112.964 37.2533 113.001 35.9299C112.97 34.6115 113.185 33.2997 113.633 32.0724C114.081 30.8451 114.754 29.7272 115.611 28.785C116.479 27.826 117.524 27.0737 118.679 26.5768C119.834 26.0799 121.072 25.8494 122.315 25.9002C123.509 25.8597 124.698 26.0964 125.799 26.5942C126.901 27.0919 127.89 27.8391 128.7 28.785C130.392 30.7104 131.306 33.28 131.24 35.9299C131.223 36.6068 131.158 37.2813 131.046 37.9478ZM117.672 34.1437H126.695C126.519 33.0422 125.978 32.0467 125.173 31.3417C124.368 30.6367 123.352 30.27 122.315 30.3097C121.216 30.2566 120.134 30.61 119.248 31.3112C118.433 32.0282 117.878 33.0307 117.679 34.1437H117.672Z" fill="#F7F8FD"/>
<path d="M207.907 45.6729C206.676 45.7036 205.451 45.4649 204.308 44.9713C203.164 44.4776 202.126 43.7393 201.255 42.801C200.385 41.8626 199.7 40.7438 199.242 39.5122C198.785 38.2806 198.564 36.9618 198.593 35.6357C198.6 33.8738 199.036 32.1447 199.858 30.6208C200.679 29.097 201.857 27.8318 203.274 26.9514C204.692 26.0711 206.298 25.6064 207.935 25.6038C209.571 25.6011 211.179 26.0606 212.599 26.9363C213.968 27.7701 215.086 29.0101 215.819 30.5088L211.905 32.9826C211.55 32.1933 210.978 31.541 210.267 31.1141C209.534 30.6546 208.699 30.4194 207.852 30.434C207.222 30.4168 206.595 30.5408 206.012 30.7981C205.429 31.0554 204.902 31.4405 204.465 31.9288C204.018 32.4214 203.669 33.0067 203.439 33.6491C203.209 34.2915 203.102 34.9775 203.125 35.6656C203.11 36.3527 203.22 37.0364 203.45 37.6775C203.68 38.3187 204.025 38.9049 204.465 39.4025C204.908 39.8795 205.437 40.2536 206.019 40.5017C206.602 40.7498 207.225 40.8666 207.852 40.8449C208.708 40.8597 209.554 40.6302 210.301 40.1797C211.01 39.7623 211.58 39.1169 211.932 38.3337L215.881 40.7701C215.104 42.2536 213.964 43.479 212.585 44.3127C211.166 45.2069 209.551 45.6765 207.907 45.6729Z" fill="#F7F8FD"/>
<path d="M235.148 37.6536H221.844C222.434 40.0302 224.092 41.226 226.82 41.226C227.572 41.277 228.325 41.131 229.014 40.8004C229.703 40.4698 230.308 39.9645 230.776 39.3277L234.44 41.5698C232.705 44.2753 230.142 45.6305 226.75 45.6355C225.463 45.7045 224.177 45.4903 222.969 45.0058C221.761 44.5214 220.658 43.7769 219.727 42.8179C218.853 41.8791 218.168 40.7574 217.713 39.522C217.258 38.2866 217.044 36.9639 217.083 35.6357C217.051 34.3183 217.265 33.0075 217.713 31.7813C218.162 30.5551 218.835 29.4386 219.692 28.4983C220.561 27.5416 221.607 26.7918 222.762 26.2975C223.916 25.8031 225.155 25.5752 226.396 25.6284C227.592 25.5854 228.781 25.8217 229.883 26.321C230.986 26.8203 231.974 27.5707 232.781 28.5207C233.621 29.4716 234.278 30.5915 234.715 31.8162C235.152 33.041 235.361 34.3465 235.329 35.6581C235.314 36.3271 235.254 36.9941 235.148 37.6536ZM221.774 33.8495H230.797C230.621 32.748 230.08 31.7525 229.275 31.0475C228.47 30.3425 227.454 29.9758 226.417 30.0155C225.329 29.9695 224.259 30.3255 223.384 31.0244C222.553 31.7302 221.982 32.7317 221.774 33.8495Z" fill="#F7F8FD"/>
<path d="M248.911 34.4998V26.1368H253.464V45.1349H248.911V39.0812C247.553 39.5452 246.136 39.7773 244.712 39.7688C242.85 39.8759 241.016 39.24 239.562 37.9826C238.915 37.3448 238.408 36.5598 238.078 35.6846C237.748 34.8094 237.603 33.866 237.653 32.9229V26.1218H242.193V32.3549C242.193 34.2532 243.287 35.2024 245.475 35.2024C246.654 35.2347 247.825 34.9952 248.911 34.4998Z" fill="#F7F8FD"/>
<path d="M274.742 37.6537H261.437C262.027 40.0303 263.679 41.2261 266.414 41.2261C267.166 41.2772 267.918 41.1311 268.605 40.8005C269.293 40.4699 269.896 39.9645 270.363 39.3278L274.034 41.5699C272.295 44.2753 269.731 45.6306 266.344 45.6355C265.057 45.7055 263.77 45.4917 262.562 45.0072C261.355 44.5227 260.252 43.7777 259.321 42.818C258.446 41.8798 257.759 40.7584 257.303 39.523C256.847 38.2876 256.631 36.9646 256.669 35.6358C256.639 34.3179 256.854 33.0069 257.304 31.7808C257.753 30.5546 258.427 29.4383 259.286 28.4984C260.154 27.5406 261.2 26.7901 262.355 26.2956C263.51 25.8012 264.748 25.5739 265.99 25.6286C267.186 25.5856 268.375 25.8218 269.477 26.3211C270.58 26.8204 271.568 27.5709 272.376 28.5209C273.214 29.4724 273.87 30.5925 274.306 31.8172C274.742 33.0419 274.949 34.3471 274.916 35.6582C274.904 36.3271 274.846 36.9941 274.742 37.6537ZM261.368 33.8496H270.391C270.218 32.748 269.679 31.7517 268.875 31.0463C268.07 30.3409 267.055 29.9746 266.018 30.0156C264.928 29.9697 263.855 30.3256 262.978 31.0245C262.146 31.7295 261.575 32.7313 261.368 33.8496Z" fill="#F7F8FD"/>
<path d="M289.663 33.319V26.1367H294.244V45.1349H289.663V37.9153H282.647V45.1349H278.094V26.1367H282.647V33.319H289.663Z" fill="#F7F8FD"/>
<path d="M302.829 36.9288L311.123 26.1367H314.51V45.1349H310.061V34.3503L301.767 45.1349H298.408V26.1367H302.857L302.829 36.9288Z" fill="#F7F8FD"/>
<path d="M335.823 37.6537H322.518C323.101 40.0303 324.76 41.2261 327.495 41.2261C328.246 41.2765 328.998 41.1302 329.686 40.7996C330.374 40.469 330.977 39.964 331.444 39.3278L335.115 41.5699C333.375 44.2753 330.812 45.6306 327.425 45.6355C326.138 45.7055 324.851 45.4917 323.643 45.0072C322.436 44.5227 321.333 43.7777 320.402 42.818C319.527 41.8798 318.84 40.7584 318.384 39.523C317.928 38.2876 317.712 36.9646 317.75 35.6358C317.72 34.3179 317.935 33.0069 318.385 31.7808C318.834 30.5546 319.508 29.4383 320.367 28.4984C321.235 27.5406 322.281 26.7901 323.436 26.2956C324.591 25.8012 325.829 25.5739 327.071 25.6286C328.266 25.5856 329.456 25.8218 330.558 26.3211C331.66 26.8204 332.649 27.5709 333.456 28.5209C334.295 29.4724 334.951 30.5925 335.386 31.8172C335.822 33.0419 336.03 34.3471 335.997 35.6582C335.985 36.3271 335.927 36.9941 335.823 37.6537ZM322.449 33.8496H331.471C331.299 32.748 330.76 31.7517 329.955 31.0463C329.151 30.3409 328.136 29.9746 327.099 30.0156C326.009 29.9697 324.936 30.3256 324.059 31.0245C323.227 31.7295 322.656 32.7313 322.449 33.8496Z" fill="#F7F8FD"/>
</svg>
