<svg width="24" height="24" viewBox="0 0 24 24" fill="none" xmlns="http://www.w3.org/2000/svg">
<path d="M21.3335 23.6667H2.66683C2.04799 23.6667 1.4545 23.4208 1.01691 22.9833C0.579329 22.5457 0.333496 21.9522 0.333496 21.3333V8.55718C0.35289 8.17153 0.466238 7.79647 0.663676 7.46463C0.861114 7.13278 1.13666 6.85422 1.46633 6.65318L10.7997 1.05318C11.1622 0.83582 11.5769 0.721008 11.9996 0.721008C12.4223 0.721008 12.837 0.83582 13.1995 1.05318L22.5328 6.65318C23.234 7.07668 23.6645 7.83501 23.6668 8.65401V21.3333C23.6668 21.9522 23.421 22.5457 22.9834 22.9833C22.5458 23.4208 21.9523 23.6667 21.3335 23.6667ZM2.66683 9.51268V21.3333H21.3335V9.51268L12.0002 15.7345L2.66683 9.51268ZM12.0002 3.05401L4.20216 7.73235L12.0002 12.931L19.797 7.73235L12.0002 3.05401Z" fill="#3D80EA"/>
</svg>
